<svg width="1080" height="644" viewBox="0 0 1080 644" fill="none" xmlns="http://www.w3.org/2000/svg">
<rect width="1080" height="644" fill="white"/>
<g clip-path="url(#clip0_222_22)">
<path d="M588.209 276.02C580.474 289.825 563.533 291.722 536.394 289.098C515.983 287.122 497.37 285.592 476.957 274.463C462.67 266.679 451.361 256.147 443.106 245.918C434.161 234.837 421.676 222.191 427.797 209.626C436.208 192.367 484.848 177.831 532.08 201.602C583.964 227.723 595.776 262.528 588.209 276.02Z" fill="url(#paint0_linear_222_22)"/>
<path d="M731.676 277.901C717.104 285.13 697.764 275.835 697.764 275.835C697.764 275.835 702.062 254.825 716.641 247.607C731.214 240.378 750.546 249.663 750.546 249.663C750.546 249.663 746.248 270.673 731.676 277.901Z" fill="url(#paint1_linear_222_22)"/>
<path d="M282.418 353.293C297.953 362.604 320.242 353.997 320.242 353.997C320.242 353.997 317.328 330.296 301.783 320.995C286.246 311.684 263.966 320.281 263.966 320.281C263.966 320.281 266.881 343.982 282.418 353.293Z" fill="url(#paint2_linear_222_22)"/>
<path d="M705.75 213.056C701.356 213.056 697.794 216.619 697.794 221.013C697.794 225.407 701.356 228.969 705.75 228.969C710.145 228.969 713.707 225.407 713.707 221.013C713.707 216.619 710.145 213.056 705.75 213.056Z" fill="#EB4432"/>
<path d="M431.165 264.277C427.547 264.277 424.615 267.209 424.615 270.827C424.615 274.444 427.547 277.377 431.165 277.377C434.782 277.377 437.715 274.444 437.715 270.827C437.715 267.209 434.782 264.277 431.165 264.277Z" fill="#EB4432"/>
<path d="M383.957 335.85C379.838 335.85 376.498 332.51 376.498 328.39C376.498 324.27 379.838 320.93 383.957 320.93C388.077 320.93 391.417 324.27 391.417 328.39C391.417 332.51 388.077 335.85 383.957 335.85Z" fill="#EB4432"/>
<path d="M664.023 255.718C662.1 255.718 660.541 254.159 660.541 252.237C660.541 250.314 662.1 248.755 664.023 248.755C665.945 248.755 667.504 250.314 667.504 252.237C667.504 254.159 665.945 255.718 664.023 255.718Z" fill="#EB4432"/>
<path d="M682.441 408.268C679.969 408.268 677.965 406.264 677.965 403.792C677.965 401.321 679.969 399.317 682.441 399.317C684.912 399.317 686.916 401.321 686.916 403.792C686.916 406.264 684.912 408.268 682.441 408.268Z" fill="#E1E4E5"/>
<path d="M357.352 378.873C353.782 378.873 350.887 375.979 350.887 372.408C350.887 368.838 353.782 365.943 357.352 365.943C360.922 365.943 363.817 368.838 363.817 372.408C363.817 375.979 360.922 378.873 357.352 378.873Z" fill="#E1E4E5"/>
<path d="M719.011 371.903C716.294 371.903 714.091 369.7 714.091 366.983C714.091 364.266 716.294 362.063 719.011 362.063C721.729 362.063 723.932 364.266 723.932 366.983C723.932 369.7 721.729 371.903 719.011 371.903Z" fill="#E1E4E5"/>
<path d="M653.019 212.912C649.998 212.912 647.549 210.463 647.549 207.442C647.549 204.421 649.998 201.972 653.019 201.972C656.04 201.972 658.489 204.421 658.489 207.442C658.489 210.463 656.04 212.912 653.019 212.912Z" fill="#E1E4E5"/>
<path d="M367.081 269.798C367.783 272.418 366.228 275.112 363.607 275.814C360.987 276.516 358.293 274.961 357.591 272.341C356.889 269.72 358.444 267.026 361.064 266.324C363.685 265.622 366.379 267.177 367.081 269.798Z" fill="#E1E4E5"/>
<path d="M481.137 179.913C477.528 179.913 474.603 176.987 474.603 173.378C474.603 169.769 477.528 166.844 481.137 166.844C484.746 166.844 487.672 169.769 487.672 173.378C487.672 176.987 484.746 179.913 481.137 179.913Z" fill="#E1E4E5"/>
<path d="M672.553 349.152C669.777 349.152 667.526 347.351 667.526 345.13C667.526 342.909 669.777 341.109 672.553 341.109C675.329 341.109 677.58 342.909 677.58 345.13C677.58 347.351 675.329 349.152 672.553 349.152Z" fill="#E1E4E5"/>
<path d="M609.996 155.689C609.996 160.676 605.954 164.718 600.967 164.718C595.981 164.718 591.938 160.676 591.938 155.689C591.938 150.702 595.981 146.66 600.967 146.66C605.954 146.66 609.996 150.702 609.996 155.689Z" fill="#E1E4E5"/>
<path d="M376.573 235.66H376.645C377.069 241.668 381.537 241.76 381.537 241.76C381.537 241.76 376.61 241.856 376.61 248.798C376.61 241.856 371.683 241.76 371.683 241.76C371.683 241.76 376.149 241.668 376.573 235.66ZM416.893 408.627H416.962C417.369 414.618 421.658 414.709 421.658 414.709C421.658 414.709 416.928 414.805 416.928 421.727C416.928 414.805 412.197 414.709 412.197 414.709C412.197 414.709 416.486 414.618 416.893 408.627Z" fill="#E1E4E5"/>
<path fill-rule="evenodd" clip-rule="evenodd" d="M626.855 394.375V440.828C626.855 445.107 625.693 449.306 623.491 452.975C621.29 456.644 618.132 459.646 614.357 461.659L554.166 493.796C550.748 495.618 546.934 496.572 543.06 496.572C539.187 496.572 535.372 495.618 531.954 493.796L471.764 461.659C467.988 459.646 464.83 456.644 462.629 452.975C460.427 449.306 459.264 445.107 459.265 440.828V394.375" fill="white"/>
<path d="M626.855 394.375V440.828C626.855 445.107 625.693 449.306 623.491 452.975C621.29 456.644 618.132 459.646 614.357 461.659L554.166 493.796C550.748 495.618 546.934 496.572 543.06 496.572C539.187 496.572 535.372 495.618 531.954 493.796L471.764 461.659C467.988 459.646 464.83 456.644 462.629 452.975C460.427 449.306 459.264 445.107 459.265 440.828V394.375" stroke="#E1E4E5" stroke-width="4"/>
<path fill-rule="evenodd" clip-rule="evenodd" d="M509.283 286.763L651.581 360.208C653.495 361.195 655.101 362.687 656.228 364.521C657.354 366.356 657.957 368.463 657.972 370.616C657.986 372.769 657.412 374.885 656.31 376.734C655.209 378.584 653.623 380.097 651.723 381.11L598.613 409.435C595.243 411.233 591.488 412.186 587.668 412.213C583.849 412.239 580.08 411.339 576.685 409.588L434.422 336.12C432.509 335.133 430.902 333.641 429.776 331.807C428.65 329.972 428.047 327.864 428.032 325.712C428.017 323.559 428.592 321.444 429.693 319.594C430.794 317.745 432.381 316.231 434.28 315.218L487.39 286.893C490.757 285.105 494.508 284.159 498.32 284.137C502.133 284.114 505.894 285.015 509.283 286.763Z" fill="white" stroke="#E1E4E5" stroke-width="4"/>
<path d="M576.72 286.763L434.422 360.208C432.509 361.195 430.902 362.687 429.776 364.521C428.649 366.356 428.046 368.463 428.032 370.616C428.017 372.769 428.591 374.885 429.693 376.734C430.794 378.584 432.381 380.097 434.28 381.11L487.39 409.435C490.76 411.233 494.516 412.186 498.335 412.213C502.155 412.239 505.923 411.339 509.318 409.588L651.582 336.12C653.495 335.133 655.101 333.641 656.227 331.807C657.354 329.972 657.957 327.864 657.971 325.712C657.986 323.559 657.411 321.444 656.31 319.594C655.209 317.745 653.623 316.231 651.723 315.218L598.613 286.893C595.246 285.105 591.496 284.159 587.683 284.137C583.87 284.114 580.109 285.015 576.72 286.763Z" stroke="#E1E4E5" stroke-width="4"/>
<path d="M543.002 496.571V392.168" stroke="#E1E4E5" stroke-width="4"/>
<path d="M309.551 263.476C328.43 247.243 378.256 217.319 426.529 227.483C486.871 240.186 620.257 234.893 631.373 186.725C642.489 138.558 540.861 148.086 580.559 216.896C612.318 271.944 724.002 314.642 776.404 332.815" stroke="#E1E4E5" stroke-width="2" stroke-dasharray="7 6"/>
<path d="M594.356 193.48H491.178C478.115 193.48 467.525 204.07 467.525 217.134V316.796C467.525 329.859 478.115 340.449 491.178 340.449H594.356C607.419 340.449 618.009 329.859 618.009 316.796V217.134C618.009 204.07 607.419 193.48 594.356 193.48Z" fill="#EB4432"/>
<path d="M558.813 328.832L548.024 318.043C544.791 314.81 539.549 314.81 536.316 318.043L525.527 328.832C522.294 332.065 522.294 337.307 525.527 340.54L536.316 351.33C539.549 354.563 544.791 354.563 548.024 351.33L558.813 340.54C562.046 337.307 562.046 332.065 558.813 328.832Z" fill="#EB4432"/>
<path fill-rule="evenodd" clip-rule="evenodd" d="M582.147 299.476V305.195C582.147 308.352 579.604 310.915 576.471 310.915H508.361C505.228 310.915 502.686 308.352 502.686 305.195V299.384C502.686 282.077 522.312 270.832 542.416 270.832C562.52 270.832 582.147 282.083 582.147 299.384M555.987 228.988C563.676 236.951 563.676 249.864 555.987 257.827C548.298 265.792 535.831 265.792 528.142 257.827C520.452 249.864 520.452 236.951 528.142 228.988C535.831 221.024 548.298 221.024 555.987 228.988Z" fill="white"/>
<path d="M318.52 216.817H279.351C266.287 216.817 255.697 227.407 255.697 240.471V277.619C255.697 290.683 266.287 301.273 279.351 301.273H318.52C331.583 301.273 342.173 290.683 342.173 277.619V240.471C342.173 227.407 331.583 216.817 318.52 216.817Z" fill="#EB4432"/>
<path d="M305.665 292.108L304.445 290.888C301.212 287.655 295.97 287.655 292.737 290.888L291.517 292.108C288.284 295.341 288.284 300.583 291.517 303.816L292.737 305.036C295.97 308.269 301.212 308.269 304.445 305.036L305.665 303.816C308.898 300.583 308.898 295.341 305.665 292.108Z" fill="#EB4432"/>
<path fill-rule="evenodd" clip-rule="evenodd" d="M321.564 277.728V281.015C321.564 282.829 320.103 284.301 318.303 284.301H279.163C277.363 284.301 275.902 282.829 275.902 281.015V277.676C275.902 267.73 287.18 261.268 298.733 261.268C310.285 261.268 321.564 267.733 321.564 277.676M306.532 237.222C310.95 241.798 310.95 249.218 306.532 253.795C302.113 258.371 294.949 258.371 290.531 253.795C286.112 249.218 286.112 241.798 290.531 237.222C294.949 232.645 302.113 232.645 306.532 237.222Z" fill="white"/>
<path d="M801.416 277.853H762.247C749.184 277.853 738.594 288.443 738.594 301.506V338.655C738.594 351.718 749.184 362.308 762.247 362.308H801.416C814.48 362.308 825.07 351.718 825.07 338.655V301.506C825.07 288.443 814.48 277.853 801.416 277.853Z" fill="#EB4432"/>
<path d="M788.562 353.143L787.342 351.923C784.109 348.69 778.867 348.69 775.634 351.923L774.414 353.143C771.181 356.376 771.181 361.618 774.414 364.851L775.634 366.071C778.867 369.304 784.109 369.304 787.342 366.071L788.562 364.851C791.795 361.618 791.795 356.376 788.562 353.143Z" fill="#EB4432"/>
<path fill-rule="evenodd" clip-rule="evenodd" d="M804.462 338.763V342.05C804.462 343.865 803 345.337 801.2 345.337H762.06C760.26 345.337 758.799 343.865 758.799 342.05V338.71C758.799 328.765 770.077 322.304 781.63 322.304C793.182 322.304 804.462 328.769 804.462 338.71M789.429 298.257C793.847 302.834 793.847 310.254 789.429 314.83C785.01 319.406 777.846 319.406 773.428 314.83C769.009 310.254 769.009 302.834 773.428 298.257C777.846 293.681 785.01 293.681 789.429 298.257Z" fill="white"/>
</g>
<path d="M423.456 576.888V568.152C423.456 566.744 422.656 566.04 421.056 566.04H411.84C407.104 566.04 403.744 565.016 401.76 562.968C399.84 560.856 398.88 557.848 398.88 553.944V541.272C398.88 533.336 403.552 529.368 412.896 529.368H426.048C435.392 529.368 440.064 533.336 440.064 541.272V548.664H423.264V543.48C423.264 542.072 422.464 541.368 420.864 541.368H418.08C416.48 541.368 415.68 542.072 415.68 543.48V552.6C415.68 554.008 416.48 554.712 418.08 554.712H427.104C431.84 554.712 435.2 555.704 437.184 557.688C439.232 559.672 440.256 562.584 440.256 566.424V579.096C440.256 587.032 435.584 591 426.24 591H413.184C403.776 591 399.072 587.032 399.072 579.096V571.704H415.872V576.888C415.872 578.296 416.672 579 418.272 579H421.056C422.656 579 423.456 578.296 423.456 576.888ZM471.764 543.096H473.492C482.004 543.096 486.26 547.064 486.26 555V591H469.94V557.208C469.94 555.8 469.14 555.096 467.54 555.096H465.908C464.18 555.096 463.316 556.056 463.316 557.976V591H446.996V526.776H463.316V548.28C464.532 544.824 467.348 543.096 471.764 543.096ZM493.208 538.296V526.776H510.104V538.296H493.208ZM509.816 591H493.496V543.096H509.816V591ZM542.264 543.096H543.992C552.504 543.096 556.76 547.064 556.76 555V579.096C556.76 587.032 552.504 591 543.992 591H542.264C537.848 591 535.032 589.272 533.816 585.816V603.384H517.496V543.096H533.528V549.24C534.424 545.144 537.336 543.096 542.264 543.096ZM540.44 576.888V557.208C540.44 555.8 539.64 555.096 538.04 555.096H536.408C534.68 555.096 533.816 556.056 533.816 557.976V576.12C533.816 578.04 534.68 579 536.408 579H538.04C539.64 579 540.44 578.296 540.44 576.888ZM588.202 543.096H589.93C598.442 543.096 602.698 547.064 602.698 555V579.096C602.698 587.032 598.442 591 589.93 591H588.202C583.786 591 580.97 589.272 579.754 585.816V603.384H563.434V543.096H579.466V549.24C580.362 545.144 583.274 543.096 588.202 543.096ZM586.378 576.888V557.208C586.378 555.8 585.578 555.096 583.978 555.096H582.346C580.618 555.096 579.754 556.056 579.754 557.976V576.12C579.754 578.04 580.618 579 582.346 579H583.978C585.578 579 586.378 578.296 586.378 576.888ZM622.523 543.096H634.235C643.643 543.096 648.347 547.064 648.347 555V571.32H623.867V577.656C623.867 579.064 624.667 579.768 626.267 579.768H630.491C632.091 579.768 632.891 579 632.891 577.464V574.776H648.347V579.096C648.347 587.032 643.643 591 634.235 591H622.523C613.115 591 608.411 587.032 608.411 579.096V555C608.411 547.064 613.115 543.096 622.523 543.096ZM623.867 562.488H632.891V556.44C632.891 555.032 632.091 554.328 630.491 554.328H626.267C624.667 554.328 623.867 555.032 623.867 556.44V562.488ZM680.959 542.616H682.399V556.824H676.927C672.895 556.824 670.879 559 670.879 563.352V591H654.559V543.096H670.591V550.488C671.103 548.056 672.255 546.136 674.047 544.728C675.839 543.32 678.143 542.616 680.959 542.616Z" fill="#232323"/>
<path fill-rule="evenodd" clip-rule="evenodd" d="M332.647 50.0145C332.679 50.1325 332.696 50.2541 332.696 50.3762V69.3662C332.696 69.61 332.631 69.8494 332.508 70.0603C332.385 70.2712 332.207 70.4461 331.994 70.5674L315.915 79.7439V97.9326C315.915 98.4276 315.65 98.8845 315.217 99.1337L281.653 118.286C281.576 118.33 281.493 118.357 281.409 118.387C281.377 118.397 281.348 118.416 281.315 118.425C281.08 118.486 280.833 118.486 280.599 118.425C280.56 118.415 280.525 118.394 280.489 118.38C280.412 118.352 280.332 118.328 280.258 118.286L246.702 99.1337C246.489 99.0124 246.312 98.8374 246.188 98.6265C246.065 98.4156 246 98.1763 246 97.9326V40.9626C246 40.838 246.017 40.7168 246.049 40.5991C246.059 40.5593 246.084 40.523 246.098 40.4832C246.124 40.4105 246.148 40.3361 246.187 40.2686C246.213 40.2236 246.251 40.1872 246.283 40.1457C246.323 40.0903 246.36 40.0332 246.407 39.9847C246.447 39.9449 246.499 39.9155 246.545 39.8809C246.595 39.8393 246.641 39.7943 246.698 39.7614H246.7L263.479 30.1851C263.692 30.0639 263.932 30.0001 264.178 30.0001C264.423 30.0001 264.664 30.0639 264.876 30.1851L281.655 39.7614H281.659C281.714 39.7961 281.762 39.8393 281.812 39.8791C281.858 39.9137 281.908 39.9449 281.948 39.983C281.997 40.0332 282.032 40.0903 282.074 40.1457C282.104 40.1872 282.144 40.2236 282.168 40.2686C282.209 40.3378 282.231 40.4105 282.259 40.4832C282.273 40.523 282.298 40.5593 282.308 40.6009C282.34 40.7188 282.357 40.8404 282.357 40.9626V76.5455L296.339 68.5649V50.3745C296.339 50.2534 296.356 50.1305 296.388 50.0145C296.4 49.973 296.423 49.9366 296.437 49.8968C296.465 49.8241 296.489 49.7497 296.527 49.6822C296.554 49.6372 296.592 49.6009 296.622 49.5593C296.664 49.5039 296.699 49.4468 296.747 49.3984C296.788 49.3586 296.838 49.3291 296.884 49.2945C296.936 49.253 296.981 49.208 297.037 49.1751H297.039L313.82 39.5987C314.032 39.4774 314.273 39.4135 314.518 39.4135C314.763 39.4135 315.004 39.4774 315.217 39.5987L331.996 49.1751C332.055 49.2097 332.1 49.253 332.153 49.2928C332.197 49.3274 332.247 49.3586 332.287 49.3966C332.336 49.4468 332.371 49.5039 332.413 49.5593C332.444 49.6009 332.483 49.6372 332.507 49.6822C332.547 49.7497 332.57 49.8241 332.598 49.8968C332.614 49.9366 332.637 49.973 332.647 50.0145ZM329.899 68.5649V52.7734L324.027 56.1241L315.915 60.7539V76.5455L329.901 68.5649H329.899ZM313.12 97.1312V81.3293L305.141 85.8466L282.355 98.7374V114.688L313.12 97.1312ZM248.797 43.3597V97.1312L279.558 114.686V98.7391L263.488 89.7236L263.483 89.7201L263.476 89.7166C263.422 89.6855 263.376 89.6405 263.326 89.6024C263.282 89.5678 263.231 89.5401 263.193 89.502L263.189 89.4968C263.144 89.4536 263.113 89.3999 263.074 89.3514C263.039 89.3047 262.997 89.2649 262.969 89.2164L262.968 89.2112C262.936 89.1593 262.917 89.097 262.894 89.0382C262.872 88.9862 262.842 88.9378 262.828 88.8824V88.8807C262.81 88.8149 262.807 88.7457 262.8 88.6782C262.793 88.6262 262.779 88.5743 262.779 88.5224V88.5189V51.3403L254.669 46.7087L248.797 43.3614V43.3597ZM264.179 32.9855L250.199 40.9626L264.176 48.9397L278.154 40.9609L264.176 32.9855H264.179ZM271.45 82.7693L279.56 78.1412V43.3597L273.688 46.7105L265.576 51.3403V86.1218L271.45 82.7693ZM314.518 42.3991L300.54 50.3762L314.518 58.3534L328.495 50.3745L314.518 42.3991ZM313.12 60.7539L305.008 56.1241L299.136 52.7734V68.5649L307.246 73.193L313.12 76.5455V60.7539ZM280.955 96.3403L301.458 84.7372L311.707 78.9391L297.739 70.9672L281.657 80.1455L266.999 88.5103L280.955 96.3403Z" fill="#FF2D20"/>
<g clip-path="url(#clip1_222_22)">
<path d="M35 46.1765C35 37.2424 42.2301 30 51.1489 30H207.059V75H35V46.1765Z" fill="#F3F4F6"/>
<path d="M80.5598 44.8471H66.5414C65.3138 44.8721 64.2739 45.1357 63.4221 45.6376C62.5952 46.1145 62.1818 47.0431 62.1818 48.4235C62.1818 49.4776 62.5326 50.2306 63.2341 50.6824C63.9608 51.1341 64.8 51.36 65.7522 51.36L73.2688 51.3224C73.5445 51.3474 73.8325 51.36 74.1332 51.36C74.4338 51.36 74.7345 51.3726 75.0352 51.3976C75.9122 51.4479 76.7766 51.5984 77.6284 51.8494C78.4801 52.0753 79.2318 52.502 79.8833 53.1294C80.4847 53.6816 80.9357 54.3467 81.2363 55.1247C81.537 55.9027 81.7249 56.7059 81.8001 57.5341C81.825 57.7851 81.8376 58.0361 81.8376 58.2871C81.8626 58.5129 81.8752 58.7514 81.8752 59.0024C81.825 62.1397 80.9606 64.2729 79.282 65.4023C77.6034 66.5068 75.3232 67.0588 72.4419 67.0588H57.3336V62.24H71.5399C72.7928 62.265 73.8701 62.0644 74.7721 61.6376C75.699 61.2109 76.0748 60.2447 75.8996 58.7388C75.7742 57.5592 75.3358 56.8314 74.5842 56.5553C73.8325 56.2792 72.9431 56.1286 71.9158 56.1035L65.226 56.0659C62.4449 56.091 60.2401 55.5388 58.6115 54.4094C57.0079 53.2549 56.2187 51.1843 56.2437 48.1976C56.2939 45.0604 57.1583 42.9271 58.837 41.7976C60.5407 40.6431 62.8333 40.0659 65.7146 40.0659L80.5598 40.0282V44.8471ZM92.0182 44.7718H83.3365V40.0659H106.638V44.7718H97.8811V67.0588H92.0182V44.7718ZM114.272 49.4776C114.097 50.1553 113.972 50.8455 113.897 51.5482C113.821 52.2259 113.784 52.9035 113.784 53.5812C113.784 54.2839 113.821 54.9867 113.897 55.6894C113.997 56.3671 114.122 57.0321 114.272 57.6847C114.548 58.8392 114.999 59.8432 115.625 60.6965C116.277 61.5497 117.179 62.1774 118.331 62.5788C118.757 62.7294 119.208 62.8424 119.684 62.9176C120.16 62.9929 120.637 63.0306 121.113 63.0306C121.589 63.0306 122.065 62.9929 122.541 62.9176C123.017 62.8424 123.468 62.7294 123.894 62.5788C125.046 62.1774 125.948 61.5497 126.6 60.6965C127.251 59.8432 127.702 58.8392 127.953 57.6847C128.103 57.0321 128.216 56.3671 128.291 55.6894C128.391 54.9867 128.441 54.2839 128.441 53.5812C128.441 52.9035 128.391 52.2259 128.291 51.5482C128.216 50.8455 128.103 50.1679 127.953 49.5153C127.702 48.3608 127.251 47.3569 126.6 46.5035C125.948 45.6251 125.046 44.9976 123.894 44.6212C123.468 44.4706 123.017 44.3576 122.541 44.2824C122.065 44.2071 121.589 44.1694 121.113 44.1694C120.637 44.1694 120.16 44.2071 119.684 44.2824C119.208 44.3576 118.757 44.4706 118.331 44.6212C117.179 45.0227 116.289 45.6502 115.663 46.5035C115.037 47.3569 114.573 48.3608 114.272 49.5153V49.4776ZM108.41 47.5576C109.061 45.5749 110.013 43.9686 111.266 42.7388C112.544 41.4839 114.21 40.5929 116.264 40.0659C117.016 39.8902 117.793 39.7521 118.595 39.6518C119.396 39.5514 120.198 39.5012 121 39.5012C121.852 39.4761 122.716 39.5137 123.593 39.6141C124.47 39.7145 125.309 39.8776 126.111 40.1035C128.116 40.6055 129.757 41.4839 131.034 42.7388C132.312 43.9937 133.252 45.6126 133.853 47.5953C134.104 48.4988 134.291 49.4526 134.417 50.4565C134.567 51.4604 134.642 52.4643 134.642 53.4682C134.642 54.5474 134.58 55.6016 134.454 56.6306C134.329 57.6596 134.129 58.6384 133.853 59.5671C133.252 61.6 132.3 63.2438 130.997 64.4988C129.694 65.7285 128.015 66.5821 125.961 67.0588C125.159 67.2597 124.332 67.3976 123.48 67.4729C122.628 67.5732 121.764 67.6235 120.887 67.6235C120.11 67.6235 119.334 67.5732 118.557 67.4729C117.78 67.3726 117.016 67.2344 116.264 67.0588C114.235 66.5821 112.569 65.7285 111.266 64.4988C109.963 63.2438 109.011 61.6 108.41 59.5671C108.159 58.6886 107.959 57.7349 107.808 56.7059C107.683 55.6769 107.62 54.6353 107.62 53.5812C107.62 52.5271 107.683 51.4855 107.808 50.4565C107.934 49.4024 108.134 48.4486 108.41 47.5953V47.5576ZM138.455 40.0282H152.435C152.711 40.0533 152.974 40.0659 153.225 40.0659C153.5 40.0659 153.776 40.0784 154.052 40.1035C155.079 40.1537 156.081 40.3169 157.058 40.5929C158.06 40.869 158.937 41.3835 159.689 42.1365C160.365 42.789 160.867 43.5545 161.192 44.4329C161.543 45.3114 161.756 46.2149 161.831 47.1435C161.831 47.3192 161.831 47.4949 161.831 47.6706C161.856 47.8463 161.869 48.022 161.869 48.1976C161.894 50.08 161.455 51.7114 160.553 53.0918C159.676 54.4471 158.298 55.3506 156.419 55.8024L163.147 67.0588H156.758L150.819 56.4424H144.13V67.0588H138.455V40.0282ZM151.083 44.8471H144.13V51.6612H151.083C151.133 51.6863 151.183 51.6988 151.233 51.6988C151.283 51.6988 151.333 51.6988 151.383 51.6988C152.586 51.6988 153.676 51.5231 154.653 51.1718C155.655 50.7953 156.144 49.829 156.119 48.2729C156.119 46.6667 155.592 45.7004 154.54 45.3741C153.513 45.0479 152.36 44.8847 151.083 44.8847V44.8471ZM177.766 44.7341C175.687 44.7592 174.133 45.3239 173.106 46.4282C172.079 47.5074 171.503 49.051 171.377 51.0588L187.087 51.0212V55.7271H171.34C171.34 56.6808 171.44 57.5969 171.64 58.4753C171.866 59.3537 172.304 60.1568 172.956 60.8847C173.532 61.5624 174.209 61.9891 174.985 62.1647C175.787 62.3153 176.601 62.3906 177.428 62.3906C177.478 62.3906 177.528 62.3906 177.578 62.3906C177.654 62.3906 177.716 62.3906 177.766 62.3906L187.087 62.3529V67.0588H177.503C175.975 67.0588 174.497 66.9209 173.068 66.6447C171.665 66.3685 170.338 65.7285 169.085 64.7247C167.581 63.495 166.529 62.0015 165.928 60.2447C165.326 58.4627 165.001 56.6431 164.951 54.7859C164.926 54.3843 164.913 53.9953 164.913 53.6188C164.938 53.2424 164.963 52.8659 164.988 52.4894C165.264 48.2227 166.416 45.0855 168.446 43.0776C170.5 41.0698 173.57 40.0659 177.654 40.0659L187.087 40.0282V44.7341H177.766Z" fill="#EB4433"/>
<path d="M35 75H207.059V103.824C207.059 112.758 199.829 120 190.91 120H35V75Z" fill="#4F5B93"/>
<path d="M65.604 81.2047H71.6548L77.8936 101.986L83.1552 81.2047H89.8449L95.8957 101.986L101.721 81.2047H107.546L99.203 108.235H92.2502L86.5 88.0565L81.464 108.235H74.5487L65.604 81.2047ZM110.081 88.3953H120.792C121.945 88.4203 123.047 88.5585 124.1 88.8094C125.177 89.0353 126.142 89.575 126.993 90.4282C127.72 91.1309 128.221 91.9591 128.497 92.913C128.797 93.8668 128.948 94.8456 128.948 95.8494V108.235H114.892C112.862 108.235 111.309 107.683 110.232 106.579C109.154 105.449 108.666 103.893 108.766 101.911C108.941 99.5262 109.781 97.9827 111.284 97.28C112.787 96.5774 114.579 96.2259 116.658 96.2259L123.536 96.1882C123.611 94.5568 123.185 93.5403 122.258 93.1388C121.356 92.7374 120.204 92.5365 118.8 92.5365L110.081 92.4988V88.3953ZM117.034 104.245H123.573V100.141H117.41C117.36 100.166 117.31 100.179 117.26 100.179C117.209 100.179 117.159 100.179 117.109 100.179C116.408 100.204 115.756 100.342 115.155 100.593C114.554 100.819 114.24 101.371 114.215 102.249C114.165 103.228 114.428 103.806 115.005 103.981C115.606 104.157 116.282 104.257 117.034 104.282V104.245ZM142.018 103.868H146.227V88.3953H151.451V107.708C151.451 110.243 150.862 112.151 149.685 113.431C148.507 114.736 146.616 115.388 144.01 115.388H133.75V111.36H143.108C144.16 111.335 144.949 111.071 145.475 110.569C146.002 110.067 146.252 109.289 146.227 108.235H141.604C138.923 108.235 136.882 107.696 135.478 106.616C134.075 105.537 133.374 103.554 133.374 100.668V88.3953H138.56V100.216C138.56 101.672 138.773 102.651 139.199 103.153C139.65 103.655 140.59 103.906 142.018 103.906V103.868ZM155.832 104.094H166.844C166.894 104.119 166.944 104.132 166.994 104.132C167.044 104.132 167.094 104.132 167.144 104.132C167.771 104.107 168.347 103.969 168.873 103.718C169.399 103.467 169.662 102.952 169.662 102.174C169.662 101.446 169.412 100.957 168.911 100.706C168.409 100.455 167.871 100.304 167.295 100.254C167.219 100.254 167.144 100.254 167.069 100.254C166.994 100.254 166.919 100.254 166.844 100.254L162.334 100.216C160.229 100.241 158.563 99.953 157.335 99.3506C156.132 98.7482 155.519 97.2174 155.494 94.7577C155.469 92.4485 156.095 90.8174 157.373 89.8635C158.651 88.9097 160.354 88.4329 162.484 88.4329L173.721 88.3953V92.5365H164.476C164.401 92.5615 164.326 92.5741 164.25 92.5741C164.2 92.5741 164.138 92.5741 164.062 92.5741C163.887 92.5741 163.712 92.5741 163.536 92.5741C163.386 92.5741 163.211 92.5741 163.01 92.5741C162.559 92.5991 162.121 92.6997 161.695 92.8753C161.294 93.0509 161.031 93.3774 160.906 93.8541C160.705 94.7327 160.881 95.335 161.432 95.6612C161.983 95.9874 162.622 96.1506 163.348 96.1506L168.084 96.1129C169.938 96.1379 171.491 96.5774 172.744 97.4306C173.997 98.2588 174.661 99.7021 174.736 101.76C174.736 101.785 174.736 101.81 174.736 101.835C174.736 101.835 174.736 101.848 174.736 101.873C174.761 103.479 174.298 104.947 173.345 106.278C172.418 107.583 171.078 108.235 169.324 108.235H155.832V104.094Z" fill="#F3F4F6"/>
</g>
<defs>
<linearGradient id="paint0_linear_222_22" x1="536.101" y1="365.487" x2="467.158" y2="55.684" gradientUnits="userSpaceOnUse">
<stop stop-color="white"/>
<stop offset="1" stop-color="#EEEEEE"/>
</linearGradient>
<linearGradient id="paint1_linear_222_22" x1="675.719" y1="300.449" x2="795.907" y2="205.379" gradientUnits="userSpaceOnUse">
<stop stop-color="white"/>
<stop offset="1" stop-color="#EEEEEE"/>
</linearGradient>
<linearGradient id="paint2_linear_222_22" x1="342.537" y1="383.266" x2="217.529" y2="267.117" gradientUnits="userSpaceOnUse">
<stop stop-color="white"/>
<stop offset="1" stop-color="#EEEEEE"/>
</linearGradient>
<clipPath id="clip0_222_22">
<rect width="634.5" height="423" fill="white" transform="translate(223 110)"/>
</clipPath>
<clipPath id="clip1_222_22">
<rect width="172.059" height="90" fill="white" transform="translate(35 30)"/>
</clipPath>
</defs>
</svg>
